<svg xmlns="http://www.w3.org/2000/svg" style="display: none;">
  <symbol id="bp-icon-save" viewBox="0 0 24 24">
    <path d="M19 21H5a2 2 0 0 1-2-2V5a2 2 0 0 1 2-2h11l5 5v11a2 2 0 0 1-2 2z"></path>
  <polyline points="17,21 17,13 7,13 7,21"></polyline>
  <polyline points="7,3 7,8 15,8"></polyline>
  </symbol>
  <symbol id="bp-icon-edit" viewBox="0 0 24 24">
    <path d="M11 4H4a2 2 0 0 0-2 2v14a2 2 0 0 0 2 2h14a2 2 0 0 0 2-2v-7"></path>
  <path d="M18.5 2.5a2.121 2.121 0 0 1 3 3L12 15l-4 1 1-4 9.5-9.5z"></path>
  </symbol>
  <symbol id="bp-icon-delete" viewBox="0 0 24 24">
    <polyline points="3,6 5,6 21,6"></polyline>
  <path d="M19 6v14a2 2 0 0 1-2 2H7a2 2 0 0 1-2-2V6m3 0V4a2 2 0 0 1 2-2h4a2 2 0 0 1 2 2v2"></path>
  <line x1="10" y1="11" x2="10" y2="17"></line>
  <line x1="14" y1="11" x2="14" y2="17"></line>
  </symbol>
  <symbol id="bp-icon-add" viewBox="0 0 24 24">
    <circle cx="12" cy="12" r="10"></circle>
  <line x1="12" y1="8" x2="12" y2="16"></line>
  <line x1="8" y1="12" x2="16" y2="12"></line>
  </symbol>
  <symbol id="bp-icon-search" viewBox="0 0 24 24">
    <circle cx="11" cy="11" r="8"></circle>
  <path d="m21 21-4.35-4.35"></path>
  </symbol>
  <symbol id="bp-icon-gear" viewBox="0 0 24 24">
    <circle cx="12" cy="12" r="3"></circle>
  <path d="M19.4 15a1.65 1.65 0 0 0 .33 1.82l.06.06a2 2 0 0 1 0 2.83 2 2 0 0 1-2.83 0l-.06-.06a1.65 1.65 0 0 0-1.82-.33 1.65 1.65 0 0 0-1 1.51V21a2 2 0 0 1-2 2 2 2 0 0 1-2-2v-.09A1.65 1.65 0 0 0 9 19.4a1.65 1.65 0 0 0-1.82.33l-.06.06a2 2 0 0 1-2.83 0 2 2 0 0 1 0-2.83l.06-.06a1.65 1.65 0 0 0 .33-1.82 1.65 1.65 0 0 0-1.51-1H3a2 2 0 0 1-2-2 2 2 0 0 1 2-2h.09A1.65 1.65 0 0 0 4.6 9a1.65 1.65 0 0 0-.33-1.82l-.06-.06a2 2 0 0 1 0-2.83 2 2 0 0 1 2.83 0l.06.06a1.65 1.65 0 0 0 1.82.33H9a1.65 1.65 0 0 0 1-1.51V3a2 2 0 0 1 2-2 2 2 0 0 1 2 2v.09a1.65 1.65 0 0 0 1 1.51 1.65 1.65 0 0 0 1.82-.33l.06-.06a2 2 0 0 1 2.83 0 2 2 0 0 1 0 2.83l-.06.06a1.65 1.65 0 0 0-.33 1.82V9a1.65 1.65 0 0 0 1.51 1H21a2 2 0 0 1 2 2 2 2 0 0 1-2 2h-.09a1.65 1.65 0 0 0-1.51 1z"></path>
  </symbol>
  <symbol id="bp-icon-book" viewBox="0 0 24 24">
    <path d="M4 19.5A2.5 2.5 0 0 1 6.5 17H20"></path>
  <path d="M6.5 2H20v20H6.5A2.5 2.5 0 0 1 4 19.5v-15A2.5 2.5 0 0 1 6.5 2z"></path>
  </symbol>
  <symbol id="bp-icon-image" viewBox="0 0 24 24">
    <rect x="3" y="3" width="18" height="18" rx="2" ry="2"></rect>
  <circle cx="8.5" cy="8.5" r="1.5"></circle>
  <polyline points="21,15 16,10 5,21"></polyline>
  </symbol>
  <symbol id="bp-icon-x" viewBox="0 0 24 24">
    <line x1="18" y1="6" x2="6" y2="18"></line>
  <line x1="6" y1="6" x2="18" y2="18"></line>
  </symbol>
</svg>