<svg viewBox="0 0 24 24" fill="none" xmlns="http://www.w3.org/2000/svg">
  <path d="M7.076 21.337H2.47a.641.641 0 0 1-.633-.74L4.944 2.28A.641.641 0 0 1 5.577 1.8h6.362c1.797 0 3.005.39 3.634 1.17.629.78.629 1.76.629 2.94v.39c0 3.11-1.797 5.26-4.802 5.26H8.248l-.633 3.9h4.802c.633 0 1.266-.39 1.266-1.17v-.39c0-.78-.633-1.17-1.266-1.17H9.515l.633-3.9h2.535c3.005 0 4.802-2.15 4.802-5.26v-.39c0-1.18 0-2.16-.629-2.94C15.227 2.19 14.019 1.8 12.222 1.8H5.86a.641.641 0 0 0-.633.48L2.12 20.597a.641.641 0 0 0 .633.74h4.323z" fill="currentColor"/>
</svg>