<svg xmlns="http://www.w3.org/2000/svg" width="24" height="24" viewBox="0 0 24 24" fill="none" stroke="currentColor" stroke-width="2" stroke-linecap="round" stroke-linejoin="round">
  <!-- Document outline -->
  <path d="M14 2H6a2 2 0 0 0-2 2v16a2 2 0 0 0 2 2h12a2 2 0 0 0 2-2V8z"></path>
  <polyline points="14 2 14 8 20 8"></polyline>
  
  <!-- User icon inside document (outline with bottom line) -->
  <path d="M15 18v-1.5a2.5 2.5 0 0 0-2.5-2.5H10.5a2.5 2.5 0 0 0-2.5 2.5v1.5" stroke="currentColor" stroke-width="1.5" fill="none"></path>
  <circle cx="12" cy="12" r="2" stroke="currentColor" stroke-width="1.5" fill="currentColor"></circle>
  <line x1="8" y1="18" x2="16" y2="18" stroke="currentColor" stroke-width="1.5"></line>
</svg>