<svg xmlns="http://www.w3.org/2000/svg" width="24" height="24" viewBox="0 0 24 24" fill="none" stroke="currentColor" stroke-width="1.5" stroke-linecap="round" stroke-linejoin="round">
  <path d="M21.198 2.433a2.242 2.242 0 0 0-1.022.215l-8.609 3.33c-2.068.8-4.133 1.598-5.724 2.21a205.66 205.66 0 0 1-2.849 1.09c-.42.15-.593.27-.593.442 0 .173.173.293.593.442.42.15 1.537.593 2.849 1.09 1.591.612 3.656 1.41 5.724 2.21l8.609 3.33c.347.134.694.215 1.022.215.328 0 .656-.081 1.003-.215a2.242 2.242 0 0 0 1.022-1.022c.134-.347.215-.675.215-1.003V3.456c0-.328-.081-.656-.215-1.003a2.242 2.242 0 0 0-1.022-1.022z"></path>
  <path d="M11.198 14.102L17.102 8.198"></path>
</svg>